<svg width="188" height="179" viewBox="0 0 188 179" fill="none" xmlns="http://www.w3.org/2000/svg">
<mask id="path-1-outside-1_561_251" maskUnits="userSpaceOnUse" x="9" y="0" width="169" height="179" fill="black">
<rect fill="white" x="9" width="169" height="179"/>
<path d="M13.9795 175.427L75.451 3.45999H100.921L39.449 175.427H13.9795ZM86.6747 175.427L148.146 3.45999H173.616L112.144 175.427H86.6747Z"/>
</mask>
<path d="M13.9795 175.427L11.1546 174.417L9.72121 178.427H13.9795V175.427ZM75.451 3.45999V0.45999H73.3375L72.6261 2.45018L75.451 3.45999ZM100.921 3.45999L103.745 4.4698L105.179 0.45999H100.921V3.45999ZM39.449 175.427V178.427H41.5625L42.2739 176.437L39.449 175.427ZM16.8044 176.437L78.2759 4.4698L72.6261 2.45018L11.1546 174.417L16.8044 176.437ZM75.451 6.45999H100.921V0.45999H75.451V6.45999ZM98.0956 2.45018L36.6241 174.417L42.2739 176.437L103.745 4.4698L98.0956 2.45018ZM39.449 172.427H13.9795V178.427H39.449V172.427ZM86.6747 175.427L83.8498 174.417L82.4164 178.427H86.6747V175.427ZM148.146 3.45999V0.45999H146.033L145.321 2.45018L148.146 3.45999ZM173.616 3.45999L176.441 4.4698L177.874 0.45999H173.616V3.45999ZM112.144 175.427V178.427H114.258L114.969 176.437L112.144 175.427ZM89.4996 176.437L150.971 4.4698L145.321 2.45018L83.8498 174.417L89.4996 176.437ZM148.146 6.45999H173.616V0.45999H148.146V6.45999ZM170.791 2.45018L109.319 174.417L114.969 176.437L176.441 4.4698L170.791 2.45018ZM112.144 172.427H86.6747V178.427H112.144V172.427Z" fill="#FFCF70" mask="url(#path-1-outside-1_561_251)"/>
</svg>
