<svg width="16" height="16" viewBox="0 0 16 16" fill="none" xmlns="http://www.w3.org/2000/svg">
<g clip-path="url(#clip0_521_52)">
<path d="M1.71429 0C0.767857 0 0 0.767857 0 1.71429V14.2857C0 15.2321 0.767857 16 1.71429 16H14.2857C15.2321 16 16 15.2321 16 14.2857V1.71429C16 0.767857 15.2321 0 14.2857 0H1.71429ZM5.24571 4.75836C5.947 4.75836 6.57007 5.00082 7.02889 5.36446C7.45318 5.70204 7.65189 6.03971 7.82525 6.34279L6.61371 6.94811C6.52704 6.74936 6.42275 6.54143 6.15493 6.31661C5.86036 6.08261 5.56643 6.01361 5.31479 6.01361C4.32814 6.01361 3.80871 6.93121 3.80871 7.95243C3.80871 9.29432 4.49304 9.96029 5.31479 9.96029C6.11121 9.96029 6.43186 9.40636 6.63907 9.05189L7.84286 9.66643C7.61732 10.0209 7.40093 10.3677 6.91607 10.7046C6.65671 10.8864 6.05975 11.2416 5.21121 11.2416C3.59236 11.2416 2.28571 10.0646 2.28571 7.99536C2.28571 6.18693 3.51482 4.75836 5.24571 4.75836ZM7.94154 4.94861H9.56886L10.8325 9.29429L12.087 4.94864H13.7143L11.5936 11.0598H10.0361L7.94154 4.94861Z" fill="#FDFDFD"/>
</g>
<defs>
<clipPath id="clip0_521_52">
<rect width="16" height="16" fill="white"/>
</clipPath>
</defs>
</svg>
