<svg width="16" height="16" viewBox="0 0 16 16" fill="none" xmlns="http://www.w3.org/2000/svg">
<g clip-path="url(#clip0_521_48)">
<path d="M8 0C6.96584 0 5.94181 0.212064 4.98637 0.624083C4.03093 1.0361 3.1628 1.64001 2.43153 2.40132C0.954685 3.93886 0.125 6.02421 0.125 8.19862C0.125 11.8224 2.38513 14.8969 5.5115 15.9873C5.90525 16.0529 6.03125 15.7987 6.03125 15.5774V14.1918C3.84988 14.6837 3.38525 13.0932 3.38525 13.0932C3.023 12.1421 2.51113 11.888 2.51113 11.888C1.7945 11.3797 2.56625 11.3961 2.56625 11.3961C3.35375 11.4535 3.77113 12.2405 3.77113 12.2405C4.45625 13.4867 5.61387 13.1178 6.06275 12.921C6.13363 12.3881 6.33838 12.0274 6.55888 11.8224C4.81063 11.6174 2.97575 10.9124 2.97575 7.78869C2.97575 6.87864 3.275 6.14896 3.78688 5.56686C3.70813 5.36189 3.4325 4.50924 3.86563 3.40243C3.86563 3.40243 4.52713 3.18106 6.03125 4.23868C6.65338 4.05831 7.33063 3.96813 8 3.96813C8.66938 3.96813 9.34663 4.05831 9.96875 4.23868C11.4729 3.18106 12.1344 3.40243 12.1344 3.40243C12.5675 4.50924 12.2919 5.36189 12.2131 5.56686C12.725 6.14896 13.0243 6.87864 13.0243 7.78869C13.0243 10.9206 11.1815 11.6092 9.42538 11.8142C9.70888 12.0684 9.96875 12.5685 9.96875 13.3309V15.5774C9.96875 15.7987 10.0948 16.0611 10.4964 15.9873C13.6228 14.8887 15.875 11.8224 15.875 8.19862C15.875 7.12196 15.6713 6.05584 15.2756 5.06114C14.8798 4.06644 14.2997 3.16263 13.5685 2.40132C12.8372 1.64001 11.9691 1.0361 11.0136 0.624083C10.0582 0.212064 9.03416 0 8 0Z" fill="#FDFDFD"/>
</g>
<defs>
<clipPath id="clip0_521_48">
<rect width="16" height="16" fill="white"/>
</clipPath>
</defs>
</svg>
