<svg width="16" height="16" viewBox="0 0 16 16" fill="none" xmlns="http://www.w3.org/2000/svg">
<g clip-path="url(#clip0_521_50)">
<path d="M15.36 0H0.64C0.286 0 0 0.286 0 0.64V15.36C0 15.714 0.286 16 0.64 16H15.36C15.714 16 16 15.714 16 15.36V0.64C16 0.286 15.714 0 15.36 0ZM4.746 13.634H2.372V5.998H4.746V13.634ZM3.56 4.954C3.28785 4.954 3.02182 4.8733 2.79554 4.7221C2.56925 4.57091 2.39289 4.356 2.28874 4.10457C2.1846 3.85314 2.15735 3.57647 2.21044 3.30956C2.26353 3.04264 2.39458 2.79746 2.58702 2.60502C2.77946 2.41258 3.02464 2.28153 3.29156 2.22844C3.55847 2.17535 3.83514 2.2026 4.08657 2.30674C4.338 2.41089 4.55291 2.58725 4.7041 2.81354C4.8553 3.03982 4.936 3.30585 4.936 3.578C4.934 4.338 4.318 4.954 3.56 4.954ZM13.634 13.634H11.262V9.92C11.262 9.034 11.246 7.896 10.028 7.896C8.794 7.896 8.604 8.86 8.604 9.856V13.634H6.234V5.998H8.51V7.042H8.542C8.858 6.442 9.632 5.808 10.788 5.808C13.192 5.808 13.634 7.39 13.634 9.446V13.634Z" fill="#FDFDFD"/>
</g>
<defs>
<clipPath id="clip0_521_50">
<rect width="16" height="16" fill="white"/>
</clipPath>
</defs>
</svg>
