<svg width="29" height="44" viewBox="0 0 29 44" fill="none" xmlns="http://www.w3.org/2000/svg">
<path d="M6.04138 20.264C4.76138 20.168 3.68138 19.872 2.80138 19.376C1.92138 18.88 1.20138 18.248 0.641375 17.48L2.36938 15.824C2.91338 16.48 3.48938 16.992 4.09738 17.36C4.70538 17.712 5.39338 17.928 6.16138 18.008V12.512L5.60938 12.416C4.80938 12.272 4.12938 12.056 3.56938 11.768C3.00938 11.48 2.55338 11.128 2.20138 10.712C1.84938 10.296 1.59338 9.84 1.43338 9.344C1.27338 8.832 1.19337 8.288 1.19337 7.712C1.19337 6.352 1.61738 5.272 2.46538 4.472C3.31338 3.656 4.50538 3.168 6.04138 3.008V0.535999H8.05738V3.008C9.11338 3.12 10.0254 3.384 10.7934 3.8C11.5614 4.216 12.2254 4.784 12.7854 5.504L11.0334 7.088C10.6494 6.592 10.2014 6.192 9.68938 5.888C9.19338 5.584 8.60938 5.392 7.93738 5.312V10.4L8.58538 10.496C9.38538 10.64 10.0654 10.856 10.6254 11.144C11.1854 11.432 11.6414 11.784 11.9934 12.2C12.3614 12.6 12.6254 13.056 12.7854 13.568C12.9454 14.08 13.0254 14.624 13.0254 15.2C13.0254 16.576 12.5934 17.704 11.7294 18.584C10.8814 19.464 9.65738 20 8.05738 20.192V22.712H6.04138V20.264ZM3.73738 7.64C3.73738 8.312 3.92138 8.84 4.28938 9.224C4.67338 9.592 5.29738 9.872 6.16138 10.064V5.264C4.54538 5.456 3.73738 6.248 3.73738 7.64ZM10.4814 15.32C10.4814 14.6 10.2814 14.056 9.88138 13.688C9.49738 13.304 8.84938 13.024 7.93738 12.848V17.984C8.76938 17.856 9.40138 17.568 9.83338 17.12C10.2654 16.672 10.4814 16.072 10.4814 15.32ZM18.68 20H16.016V3.248H22.28C23.88 3.248 25.096 3.696 25.928 4.592C26.776 5.488 27.2 6.72 27.2 8.288C27.2 9.568 26.888 10.624 26.264 11.456C25.64 12.288 24.744 12.8 23.576 12.992L27.44 20H24.464L20.912 13.232H18.68V20ZM21.896 11.072C23.56 11.072 24.392 10.312 24.392 8.792V7.76C24.392 6.24 23.56 5.48 21.896 5.48H18.68V11.072H21.896ZM3.90538 31.112H3.68938V44H1.33738V27.248H4.79338L9.71338 40.136H9.92938V27.248H12.2814V44H8.82538L3.90538 31.112ZM17.24 39.032H14.312V37.016H17.6L18.08 34.232H15.2V32.216H18.44L19.328 27.248H21.512L18.56 44H16.376L17.24 39.032ZM23.84 27.248H26.024L25.16 32.216H28.088V34.232H24.8L24.32 37.016H27.2V39.032H23.96L23.072 44H20.888L23.84 27.248Z" fill="#FDFDFD"/>
</svg>
