<svg width="230" height="161" viewBox="0 0 230 161" fill="none" xmlns="http://www.w3.org/2000/svg">
<g filter="url(#filter0_d_561_252)">
<mask id="path-1-outside-1_561_252" maskUnits="userSpaceOnUse" x="0" y="0" width="230" height="107" fill="black">
<rect fill="white" width="230" height="107"/>
<path d="M36.5765 101.51L16.6605 88.2965L38.4915 59.5715L5.745 48.4645L13.2135 26.442L45.194 38.1235V4.228H69.706V38.1235L101.687 26.442L109.155 48.4645L76.4085 59.5715L98.2395 88.2965L78.3235 101.51L57.45 72.9765L36.5765 101.51ZM151.402 101.51L131.486 88.2965L153.317 59.5715L120.57 48.4645L128.039 26.442L160.019 38.1235V4.228H184.531V38.1235L216.512 26.442L223.98 48.4645L191.234 59.5715L213.065 88.2965L193.149 101.51L172.275 72.9765L151.402 101.51Z"/>
</mask>
<path d="M36.5765 101.51L34.3651 104.843L37.549 106.955L39.8049 103.872L36.5765 101.51ZM16.6605 88.2965L13.4759 85.8762L10.8952 89.2718L14.4491 91.6296L16.6605 88.2965ZM38.4915 59.5715L41.6761 61.9918L45.0381 57.5682L39.7763 55.7835L38.4915 59.5715ZM5.745 48.4645L1.95691 47.1798L0.672307 50.9678L4.46017 52.2525L5.745 48.4645ZM13.2135 26.442L14.5859 22.6848L10.7403 21.2801L9.42541 25.1573L13.2135 26.442ZM45.194 38.1235L43.8216 41.8807L49.194 43.8431V38.1235H45.194ZM45.194 4.228V0.227996H41.194V4.228H45.194ZM69.706 4.228H73.706V0.227996H69.706V4.228ZM69.706 38.1235H65.706V43.8431L71.0784 41.8807L69.706 38.1235ZM101.687 26.442L105.475 25.1573L104.16 21.2801L100.314 22.6848L101.687 26.442ZM109.155 48.4645L110.44 52.2525L114.228 50.9678L112.943 47.1798L109.155 48.4645ZM76.4085 59.5715L75.1237 55.7835L69.8619 57.5682L73.2239 61.9918L76.4085 59.5715ZM98.2395 88.2965L100.451 91.6296L104.005 89.2718L101.424 85.8762L98.2395 88.2965ZM78.3235 101.51L75.0951 103.872L77.3511 106.955L80.5349 104.843L78.3235 101.51ZM57.45 72.9765L60.6784 70.6148L57.45 66.2017L54.2216 70.6148L57.45 72.9765ZM38.7879 98.1769L18.8719 84.9634L14.4491 91.6296L34.3651 104.843L38.7879 98.1769ZM19.8451 90.7168L41.6761 61.9918L35.3069 57.1512L13.4759 85.8762L19.8451 90.7168ZM39.7763 55.7835L7.02983 44.6765L4.46017 52.2525L37.2067 63.3595L39.7763 55.7835ZM9.53309 49.7492L17.0016 27.7267L9.42541 25.1573L1.95691 47.1798L9.53309 49.7492ZM11.8411 30.1992L43.8216 41.8807L46.5664 34.3663L14.5859 22.6848L11.8411 30.1992ZM49.194 38.1235V4.228H41.194V38.1235H49.194ZM45.194 8.228H69.706V0.227996H45.194V8.228ZM65.706 4.228V38.1235H73.706V4.228H65.706ZM71.0784 41.8807L103.059 30.1992L100.314 22.6848L68.3336 34.3663L71.0784 41.8807ZM97.8984 27.7267L105.367 49.7492L112.943 47.1798L105.475 25.1573L97.8984 27.7267ZM107.87 44.6765L75.1237 55.7835L77.6933 63.3595L110.44 52.2525L107.87 44.6765ZM73.2239 61.9918L95.0549 90.7168L101.424 85.8762L79.5932 57.1512L73.2239 61.9918ZM96.0281 84.9634L76.1121 98.1769L80.5349 104.843L100.451 91.6296L96.0281 84.9634ZM81.5519 99.1483L60.6784 70.6148L54.2216 75.3382L75.0951 103.872L81.5519 99.1483ZM54.2216 70.6148L33.3481 99.1483L39.8049 103.872L60.6784 75.3382L54.2216 70.6148ZM151.402 101.51L149.19 104.843L152.374 106.955L154.63 103.872L151.402 101.51ZM131.486 88.2965L128.301 85.8762L125.72 89.2718L129.274 91.6296L131.486 88.2965ZM153.317 59.5715L156.501 61.9918L159.863 57.5682L154.602 55.7835L153.317 59.5715ZM120.57 48.4645L116.782 47.1798L115.498 50.9678L119.285 52.2525L120.57 48.4645ZM128.039 26.442L129.411 22.6848L125.565 21.2801L124.251 25.1573L128.039 26.442ZM160.019 38.1235L158.647 41.8807L164.019 43.8431V38.1235H160.019ZM160.019 4.228V0.227996H156.019V4.228H160.019ZM184.531 4.228H188.531V0.227996H184.531V4.228ZM184.531 38.1235H180.531V43.8431L185.904 41.8807L184.531 38.1235ZM216.512 26.442L220.3 25.1573L218.985 21.2801L215.139 22.6848L216.512 26.442ZM223.98 48.4645L225.265 52.2525L229.053 50.9678L227.768 47.1798L223.98 48.4645ZM191.234 59.5715L189.949 55.7835L184.687 57.5682L188.049 61.9918L191.234 59.5715ZM213.065 88.2965L215.276 91.6296L218.83 89.2718L216.249 85.8762L213.065 88.2965ZM193.149 101.51L189.92 103.872L192.176 106.955L195.36 104.843L193.149 101.51ZM172.275 72.9765L175.504 70.6148L172.275 66.2017L169.047 70.6148L172.275 72.9765ZM153.613 98.1769L133.697 84.9634L129.274 91.6296L149.19 104.843L153.613 98.1769ZM134.67 90.7168L156.501 61.9918L150.132 57.1512L128.301 85.8762L134.67 90.7168ZM154.602 55.7835L121.855 44.6765L119.285 52.2525L152.032 63.3595L154.602 55.7835ZM124.358 49.7492L131.827 27.7267L124.251 25.1573L116.782 47.1798L124.358 49.7492ZM126.666 30.1992L158.647 41.8807L161.392 34.3663L129.411 22.6848L126.666 30.1992ZM164.019 38.1235V4.228H156.019V38.1235H164.019ZM160.019 8.228H184.531V0.227996H160.019V8.228ZM180.531 4.228V38.1235H188.531V4.228H180.531ZM185.904 41.8807L217.884 30.1992L215.139 22.6848L183.159 34.3663L185.904 41.8807ZM212.724 27.7267L220.192 49.7492L227.768 47.1798L220.3 25.1573L212.724 27.7267ZM222.695 44.6765L189.949 55.7835L192.519 63.3595L225.265 52.2525L222.695 44.6765ZM188.049 61.9918L209.88 90.7168L216.249 85.8762L194.418 57.1512L188.049 61.9918ZM210.853 84.9634L190.937 98.1769L195.36 104.843L215.276 91.6296L210.853 84.9634ZM196.377 99.1483L175.504 70.6148L169.047 75.3382L189.92 103.872L196.377 99.1483ZM169.047 70.6148L148.173 99.1483L154.63 103.872L175.504 75.3382L169.047 70.6148Z" fill="#FF4FA3" mask="url(#path-1-outside-1_561_252)"/>
</g>
<defs>
<filter id="filter0_d_561_252" x="-4" y="0" width="238" height="169" filterUnits="userSpaceOnUse" color-interpolation-filters="sRGB">
<feFlood flood-opacity="0" result="BackgroundImageFix"/>
<feColorMatrix in="SourceAlpha" type="matrix" values="0 0 0 0 0 0 0 0 0 0 0 0 0 0 0 0 0 0 127 0" result="hardAlpha"/>
<feOffset dy="4"/>
<feGaussianBlur stdDeviation="2"/>
<feComposite in2="hardAlpha" operator="out"/>
<feColorMatrix type="matrix" values="0 0 0 0 0 0 0 0 0 0 0 0 0 0 0 0 0 0 0.25 0"/>
<feBlend mode="normal" in2="BackgroundImageFix" result="effect1_dropShadow_561_252"/>
<feBlend mode="normal" in="SourceGraphic" in2="effect1_dropShadow_561_252" result="shape"/>
</filter>
</defs>
</svg>
