<svg width="136" height="24" viewBox="0 0 136 24" fill="none" xmlns="http://www.w3.org/2000/svg">
<path d="M6.4 19L5 17.6L10.6 12L5 6.4L6.4 5L12 10.6L17.6 5L19 6.4L13.4 12L19 17.6L17.6 19L12 13.4L6.4 19Z" fill="#888888"/>
<path d="M75 13H61V11H75V13Z" fill="#888888"/>
<path d="M126.143 2.57141H132.571C132.781 2.57144 132.984 2.64852 133.141 2.78802C133.298 2.92753 133.398 3.11977 133.422 3.32827L133.428 3.42855V9.85713C133.428 10.0756 133.345 10.2857 133.195 10.4446C133.045 10.6034 132.84 10.699 132.622 10.7118C132.403 10.7246 132.189 10.6537 132.021 10.5135C131.854 10.3733 131.746 10.1744 131.72 9.95741L131.714 9.85713V5.4977L117.498 19.7143H121.857C122.067 19.7143 122.27 19.7914 122.426 19.9309C122.583 20.0704 122.684 20.2626 122.708 20.4711L122.714 20.5714C122.714 20.7814 122.637 20.984 122.498 21.1409C122.358 21.2978 122.166 21.398 121.957 21.4226L121.857 21.4286H115.428C115.218 21.4285 115.016 21.3514 114.859 21.2119C114.702 21.0724 114.602 20.8802 114.577 20.6717L114.571 20.5714V14.1428C114.572 13.9244 114.655 13.7142 114.805 13.5554C114.955 13.3965 115.16 13.3009 115.378 13.2881C115.596 13.2753 115.811 13.3463 115.979 13.4865C116.146 13.6267 116.254 13.8256 116.28 14.0426L116.286 14.1428V18.5014L130.501 4.2857H126.143C125.933 4.28567 125.73 4.20859 125.573 4.06908C125.416 3.92958 125.316 3.73734 125.292 3.52884L125.286 3.42855C125.286 3.21861 125.363 3.01598 125.502 2.85909C125.642 2.70221 125.834 2.60197 126.042 2.57741L126.143 2.57141Z" fill="#888888"/>
</svg>
